<mxfile host="www.draw.io" modified="2019-11-21T10:51:22.697Z" agent="Mozilla/5.0 (Windows NT 10.0; Win64; x64) AppleWebKit/537.36 (KHTML, like Gecko) Chrome/78.0.3904.108 Safari/537.36" etag="JVcazZ2JKHYD3S3iN5bY" version="12.2.7" type="github" pages="1">
  <diagram name="Page-1" id="Page-1">
    <mxGraphModel dx="1240" dy="1803" grid="1" gridSize="10" guides="1" tooltips="1" connect="1" arrows="1" fold="1" page="1" pageScale="1" pageWidth="850" pageHeight="1100" math="0" shadow="0">
      <root>
        <mxCell id="0"/>
        <mxCell id="kyNgz95rOWbvNQYz7ga9-173" parent="0"/>
        <mxCell id="kyNgz95rOWbvNQYz7ga9-264" value="Web Container" parent="0"/>
        <mxCell id="kyNgz95rOWbvNQYz7ga9-238" value="Container" parent="0"/>
        <mxCell id="kyNgz95rOWbvNQYz7ga9-239" style="vsdxID=10;fillColor=none;gradientColor=none;strokeColor=none;strokeWidth=2;spacingLeft=1;spacingRight=1;labelBackgroundColor=none;rounded=0;html=1;whiteSpace=wrap;" vertex="1" parent="kyNgz95rOWbvNQYz7ga9-238">
          <mxGeometry x="113" width="939" height="431" as="geometry"/>
        </mxCell>
        <mxCell id="kyNgz95rOWbvNQYz7ga9-240" style="vsdxID=11;fillColor=#ffffff;gradientColor=none;shape=stencil(UzV2Ls5ILEhVNTIoLinKz04tz0wpyVA1dlE1MsrMy0gtyiwBslSNXVWNndPyi1LTi/JL81Ig/IJEkEoQKze/DGRCBUSfAUiHkUElhGdoAOG7QZTmZOYhKTWlkVqYJFmKiXcDVVSSqRDNS0AGIj7SMnNyINGJLI8ef0AhSNwbuwIA);strokeColor=#233862;labelBackgroundColor=none;rounded=0;html=1;whiteSpace=wrap;" vertex="1" parent="kyNgz95rOWbvNQYz7ga9-239">
          <mxGeometry width="939" height="431" as="geometry"/>
        </mxCell>
        <mxCell id="kyNgz95rOWbvNQYz7ga9-241" value="&lt;p style=&quot;align:center;margin-left:0;margin-right:0;margin-top:0px;margin-bottom:0px;text-indent:0;valign:middle;direction:ltr;&quot;&gt;&lt;/p&gt;" style="text;vsdxID=11;fillColor=none;gradientColor=none;strokeColor=none;labelBackgroundColor=none;rounded=0;html=1;whiteSpace=wrap;verticalAlign=middle;align=center;;html=1;" vertex="1" parent="kyNgz95rOWbvNQYz7ga9-240">
          <mxGeometry y="-0.8" width="939.8" height="431.8" as="geometry"/>
        </mxCell>
        <mxCell id="kyNgz95rOWbvNQYz7ga9-242" style="vsdxID=13;fillColor=none;gradientColor=none;gradientDirection=north;strokeColor=none;strokeWidth=2;spacingLeft=1;spacingRight=1;labelBackgroundColor=none;rounded=0;html=1;whiteSpace=wrap;" vertex="1" parent="kyNgz95rOWbvNQYz7ga9-239">
          <mxGeometry width="939" height="31" as="geometry"/>
        </mxCell>
        <mxCell id="kyNgz95rOWbvNQYz7ga9-243" value="&lt;font style=&quot;font-size:16px;font-family:Calibri;color:#31528f;direction:ltr;letter-spacing:0px;line-height:120%;opacity:1&quot;&gt;Your Favourite 3D Package (Blender,Maya,3DS Max,etc)&lt;br/&gt;&lt;/font&gt;" style="text;vsdxID=13;fillColor=none;gradientColor=none;gradientDirection=north;strokeColor=none;strokeWidth=2;spacingLeft=1;spacingRight=1;labelBackgroundColor=none;rounded=0;html=1;whiteSpace=wrap;verticalAlign=middle;align=left;;html=1;" vertex="1" parent="kyNgz95rOWbvNQYz7ga9-242">
          <mxGeometry y="-0.75" width="939.8" height="31.75" as="geometry"/>
        </mxCell>
        <mxCell id="kyNgz95rOWbvNQYz7ga9-244" style="vsdxID=15;fillColor=none;gradientColor=none;strokeColor=none;strokeWidth=2;spacingLeft=1;spacingRight=1;labelBackgroundColor=none;rounded=0;html=1;whiteSpace=wrap;" vertex="1" parent="kyNgz95rOWbvNQYz7ga9-238">
          <mxGeometry x="1129" width="1009" height="685" as="geometry"/>
        </mxCell>
        <mxCell id="kyNgz95rOWbvNQYz7ga9-245" style="vsdxID=16;fillColor=#ffffff;gradientColor=none;shape=stencil(UzV2Ls5ILEhVNTIoLinKz04tz0wpyVA1dlE1MsrMy0gtyiwBslSNXVWNndPyi1LTi/JL81Ig/IJEkEoQKze/DGRCBUSfAUiHkUElhGdoAOG7QZTmZOYhKTWlkVqYJFmKiXcDVVSSqRDNS0AGIj7SMnNyINGJLI8ef0AhSNwbuwIA);strokeColor=#233862;labelBackgroundColor=none;rounded=0;html=1;whiteSpace=wrap;" vertex="1" parent="kyNgz95rOWbvNQYz7ga9-244">
          <mxGeometry width="1009" height="685" as="geometry"/>
        </mxCell>
        <mxCell id="kyNgz95rOWbvNQYz7ga9-246" value="&lt;p style=&quot;align:center;margin-left:0;margin-right:0;margin-top:0px;margin-bottom:0px;text-indent:0;valign:middle;direction:ltr;&quot;&gt;&lt;/p&gt;" style="text;vsdxID=16;fillColor=none;gradientColor=none;strokeColor=none;labelBackgroundColor=none;rounded=0;html=1;whiteSpace=wrap;verticalAlign=middle;align=center;;html=1;" vertex="1" parent="kyNgz95rOWbvNQYz7ga9-245">
          <mxGeometry y="-0.8" width="1009.65" height="685.8" as="geometry"/>
        </mxCell>
        <mxCell id="kyNgz95rOWbvNQYz7ga9-247" style="vsdxID=18;fillColor=none;gradientColor=none;gradientDirection=north;strokeColor=none;strokeWidth=2;spacingLeft=1;spacingRight=1;labelBackgroundColor=none;rounded=0;html=1;whiteSpace=wrap;" vertex="1" parent="kyNgz95rOWbvNQYz7ga9-244">
          <mxGeometry width="1009" height="31" as="geometry"/>
        </mxCell>
        <mxCell id="kyNgz95rOWbvNQYz7ga9-248" value="&lt;font style=&quot;font-size:16px;font-family:Calibri;color:#31528f;direction:ltr;letter-spacing:0px;line-height:120%;opacity:1&quot;&gt;3DSmax8&lt;br/&gt;&lt;/font&gt;" style="text;vsdxID=18;fillColor=none;gradientColor=none;gradientDirection=north;strokeColor=none;strokeWidth=2;spacingLeft=1;spacingRight=1;labelBackgroundColor=none;rounded=0;html=1;whiteSpace=wrap;verticalAlign=middle;align=left;;html=1;" vertex="1" parent="kyNgz95rOWbvNQYz7ga9-247">
          <mxGeometry y="-0.75" width="1009.65" height="31.75" as="geometry"/>
        </mxCell>
        <mxCell id="kyNgz95rOWbvNQYz7ga9-249" style="vsdxID=79;fillColor=none;gradientColor=none;strokeColor=none;strokeWidth=2;spacingLeft=1;spacingRight=1;labelBackgroundColor=none;rounded=0;html=1;whiteSpace=wrap;" vertex="1" parent="kyNgz95rOWbvNQYz7ga9-238">
          <mxGeometry x="1783" y="721" width="266" height="190" as="geometry"/>
        </mxCell>
        <mxCell id="kyNgz95rOWbvNQYz7ga9-250" style="vsdxID=80;fillColor=#ffffff;gradientColor=none;shape=stencil(UzV2Ls5ILEhVNTIoLinKz04tz0wpyVA1dlE1MsrMy0gtyiwBslSNXVWNndPyi1LTi/JL81Ig/IJEkEoQKze/DGRCBUSfAUiHkUElhGdoAOG7QZTmZOYhKTWlkVqYJFmKiXcDVVSSqRDNS0AGIj7SMnNyINGJLI8ef0AhSNwbuwIA);strokeColor=#233862;labelBackgroundColor=none;rounded=0;html=1;whiteSpace=wrap;" vertex="1" parent="kyNgz95rOWbvNQYz7ga9-249">
          <mxGeometry width="266" height="190" as="geometry"/>
        </mxCell>
        <mxCell id="kyNgz95rOWbvNQYz7ga9-251" value="&lt;p style=&quot;align:center;margin-left:0;margin-right:0;margin-top:0px;margin-bottom:0px;text-indent:0;valign:middle;direction:ltr;&quot;&gt;&lt;/p&gt;" style="text;vsdxID=80;fillColor=none;gradientColor=none;strokeColor=none;labelBackgroundColor=none;rounded=0;html=1;whiteSpace=wrap;verticalAlign=middle;align=center;;html=1;" vertex="1" parent="kyNgz95rOWbvNQYz7ga9-250">
          <mxGeometry y="-0.5" width="266.7" height="190.5" as="geometry"/>
        </mxCell>
        <mxCell id="kyNgz95rOWbvNQYz7ga9-252" style="vsdxID=82;fillColor=none;gradientColor=none;gradientDirection=north;strokeColor=none;strokeWidth=2;spacingLeft=1;spacingRight=1;labelBackgroundColor=none;rounded=0;html=1;whiteSpace=wrap;" vertex="1" parent="kyNgz95rOWbvNQYz7ga9-249">
          <mxGeometry width="266" height="31" as="geometry"/>
        </mxCell>
        <mxCell id="kyNgz95rOWbvNQYz7ga9-253" value="&lt;font style=&quot;font-size:16px;font-family:Calibri;color:#31528f;direction:ltr;letter-spacing:0px;line-height:120%;opacity:1&quot;&gt;XML File Editor (Notepad++, etc)&lt;br/&gt;&lt;/font&gt;" style="text;vsdxID=82;fillColor=none;gradientColor=none;gradientDirection=north;strokeColor=none;strokeWidth=2;spacingLeft=1;spacingRight=1;labelBackgroundColor=none;rounded=0;html=1;whiteSpace=wrap;verticalAlign=middle;align=left;;html=1;" vertex="1" parent="kyNgz95rOWbvNQYz7ga9-252">
          <mxGeometry y="-0.75" width="266.7" height="31.75" as="geometry"/>
        </mxCell>
        <mxCell id="kyNgz95rOWbvNQYz7ga9-254" style="vsdxID=86;fillColor=none;gradientColor=none;strokeColor=none;strokeWidth=2;spacingLeft=1;spacingRight=1;labelBackgroundColor=none;rounded=0;html=1;whiteSpace=wrap;" vertex="1" parent="kyNgz95rOWbvNQYz7ga9-238">
          <mxGeometry x="1129" y="952" width="520" height="347" as="geometry"/>
        </mxCell>
        <mxCell id="kyNgz95rOWbvNQYz7ga9-255" style="vsdxID=87;fillColor=#ffffff;gradientColor=none;shape=stencil(UzV2Ls5ILEhVNTIoLinKz04tz0wpyVA1dlE1MsrMy0gtyiwBslSNXVWNndPyi1LTi/JL81Ig/IJEkEoQKze/DGRCBUSfAUiHkUElhGdoAOG7QZTmZOYhKTWlkVqYJFmKiXcDVVSSqRDNS0AGIj7SMnNyINGJLI8ef0AhSNwbuwIA);strokeColor=#233862;labelBackgroundColor=none;rounded=0;html=1;whiteSpace=wrap;" vertex="1" parent="kyNgz95rOWbvNQYz7ga9-254">
          <mxGeometry width="520" height="347" as="geometry"/>
        </mxCell>
        <mxCell id="kyNgz95rOWbvNQYz7ga9-256" value="&lt;p style=&quot;align:center;margin-left:0;margin-right:0;margin-top:0px;margin-bottom:0px;text-indent:0;valign:middle;direction:ltr;&quot;&gt;&lt;/p&gt;" style="text;vsdxID=87;fillColor=none;gradientColor=none;strokeColor=none;labelBackgroundColor=none;rounded=0;html=1;whiteSpace=wrap;verticalAlign=middle;align=center;;html=1;" vertex="1" parent="kyNgz95rOWbvNQYz7ga9-255">
          <mxGeometry y="-0.13" width="520.7" height="347.13" as="geometry"/>
        </mxCell>
        <mxCell id="kyNgz95rOWbvNQYz7ga9-257" style="vsdxID=89;fillColor=none;gradientColor=none;gradientDirection=north;strokeColor=none;strokeWidth=2;spacingLeft=1;spacingRight=1;labelBackgroundColor=none;rounded=0;html=1;whiteSpace=wrap;" vertex="1" parent="kyNgz95rOWbvNQYz7ga9-254">
          <mxGeometry width="520" height="31" as="geometry"/>
        </mxCell>
        <mxCell id="kyNgz95rOWbvNQYz7ga9-258" value="&lt;font style=&quot;font-size:16px;font-family:Calibri;color:#31528f;direction:ltr;letter-spacing:0px;line-height:120%;opacity:1&quot;&gt;In-Game&lt;br/&gt;&lt;/font&gt;" style="text;vsdxID=89;fillColor=none;gradientColor=none;gradientDirection=north;strokeColor=none;strokeWidth=2;spacingLeft=1;spacingRight=1;labelBackgroundColor=none;rounded=0;html=1;whiteSpace=wrap;verticalAlign=middle;align=left;;html=1;" vertex="1" parent="kyNgz95rOWbvNQYz7ga9-257">
          <mxGeometry y="-0.75" width="520.7" height="31.75" as="geometry"/>
        </mxCell>
        <mxCell id="kyNgz95rOWbvNQYz7ga9-259" style="vsdxID=114;fillColor=none;gradientColor=none;strokeColor=none;strokeWidth=2;spacingLeft=1;spacingRight=1;labelBackgroundColor=none;rounded=0;html=1;whiteSpace=wrap;" vertex="1" parent="kyNgz95rOWbvNQYz7ga9-238">
          <mxGeometry x="113" y="643" width="939" height="347" as="geometry"/>
        </mxCell>
        <mxCell id="kyNgz95rOWbvNQYz7ga9-260" style="vsdxID=115;fillColor=#ffffff;gradientColor=none;shape=stencil(UzV2Ls5ILEhVNTIoLinKz04tz0wpyVA1dlE1MsrMy0gtyiwBslSNXVWNndPyi1LTi/JL81Ig/IJEkEoQKze/DGRCBUSfAUiHkUElhGdoAOG7QZTmZOYhKTWlkVqYJFmKiXcDVVSSqRDNS0AGIj7SMnNyINGJLI8ef0AhSNwbuwIA);strokeColor=#233862;labelBackgroundColor=none;rounded=0;html=1;whiteSpace=wrap;" vertex="1" parent="kyNgz95rOWbvNQYz7ga9-259">
          <mxGeometry width="939" height="347" as="geometry"/>
        </mxCell>
        <mxCell id="kyNgz95rOWbvNQYz7ga9-261" value="&lt;p style=&quot;align:center;margin-left:0;margin-right:0;margin-top:0px;margin-bottom:0px;text-indent:0;valign:middle;direction:ltr;&quot;&gt;&lt;/p&gt;" style="text;vsdxID=115;fillColor=none;gradientColor=none;strokeColor=none;labelBackgroundColor=none;rounded=0;html=1;whiteSpace=wrap;verticalAlign=middle;align=center;;html=1;" vertex="1" parent="kyNgz95rOWbvNQYz7ga9-260">
          <mxGeometry y="-0.13" width="939.8" height="347.13" as="geometry"/>
        </mxCell>
        <mxCell id="kyNgz95rOWbvNQYz7ga9-262" style="vsdxID=117;fillColor=none;gradientColor=none;gradientDirection=north;strokeColor=none;strokeWidth=2;spacingLeft=1;spacingRight=1;labelBackgroundColor=none;rounded=0;html=1;whiteSpace=wrap;" vertex="1" parent="kyNgz95rOWbvNQYz7ga9-259">
          <mxGeometry width="939" height="31" as="geometry"/>
        </mxCell>
        <mxCell id="kyNgz95rOWbvNQYz7ga9-263" value="&lt;font style=&quot;font-size:16px;font-family:Calibri;color:#31528f;direction:ltr;letter-spacing:0px;line-height:120%;opacity:1&quot;&gt;Substance Painter&lt;br/&gt;&lt;/font&gt;" style="text;vsdxID=117;fillColor=none;gradientColor=none;gradientDirection=north;strokeColor=none;strokeWidth=2;spacingLeft=1;spacingRight=1;labelBackgroundColor=none;rounded=0;html=1;whiteSpace=wrap;verticalAlign=middle;align=left;;html=1;" vertex="1" parent="kyNgz95rOWbvNQYz7ga9-262">
          <mxGeometry y="-0.75" width="939.8" height="31.75" as="geometry"/>
        </mxCell>
        <mxCell id="kyNgz95rOWbvNQYz7ga9-174" parent="0"/>
        <mxCell id="kyNgz95rOWbvNQYz7ga9-175" value="&lt;font style=&quot;font-size:11px;font-family:Calibri;color:#feffff;direction:ltr;letter-spacing:0px;line-height:120%;opacity:1&quot;&gt;Start&lt;br/&gt;&lt;/font&gt;" style="verticalAlign=middle;align=center;vsdxID=1;fillColor=#345593;gradientColor=none;shape=stencil(tVLREoIgEPwaHnEQxsl3s/9gEpSJwDko7e+DsEkze2l627vdu5uFRaxyHe8FosR5sCcxqMZ3iO0Rpcp0ApQPCLEasUpaEC3Yi2lS3fOojOhsr3HDmObyMtsVcYqS29Qh5FEfklwrM5OXeUa/yjkcAwfr7TDpiyTfXvjkMR+Vw2A998qaBac5tAKHU1hq3i4oNwjRr9ofvayt/+Rk+yX/4iWA159KpXWKxJx/z0Bopfyw+g4=);strokeColor=#31528f;spacingTop=-1;spacingBottom=-1;spacingLeft=-1;spacingRight=-1;labelBackgroundColor=none;rounded=0;html=1;whiteSpace=wrap;" vertex="1" parent="kyNgz95rOWbvNQYz7ga9-174">
          <mxGeometry y="145" width="101" height="38" as="geometry"/>
        </mxCell>
        <mxCell id="kyNgz95rOWbvNQYz7ga9-176" value="&lt;font style=&quot;font-size:11px;font-family:Calibri;color:#feffff;direction:ltr;letter-spacing:0px;line-height:120%;opacity:1&quot;&gt;Modeling&lt;br/&gt;&lt;/font&gt;" style="verticalAlign=middle;align=center;vsdxID=2;fillColor=#4672c4;gradientColor=none;shape=stencil(nZBLDoAgDERP0z3SIyjew0SURgSD+Lu9kMZoXLhwN9O+tukAlrNpJg1SzDH4QW/URgNYgZTkjA4UkwJUgGXng+6DX1zLfmoymdXo17xh5zmRJ6Q42BWCfc2oJfdAr+Yv+AP9Cb7OJ3H/2JG1HNGz/84klThPVCc=);strokeColor=#c8c8c8;spacingTop=-1;spacingBottom=-1;spacingLeft=-1;spacingRight=-1;labelBackgroundColor=none;rounded=0;html=1;whiteSpace=wrap;" vertex="1" parent="kyNgz95rOWbvNQYz7ga9-174">
          <mxGeometry x="152" y="126" width="101" height="76" as="geometry"/>
        </mxCell>
        <mxCell id="kyNgz95rOWbvNQYz7ga9-177" value="&lt;font style=&quot;font-size:11px;font-family:Calibri;color:#feffff;direction:ltr;letter-spacing:0px;line-height:120%;opacity:1&quot;&gt;UV Mapping&lt;br/&gt;&lt;/font&gt;" style="verticalAlign=middle;align=center;vsdxID=4;fillColor=#4672c4;gradientColor=none;shape=stencil(nZBLDoAgDERP0z3SIyjew0SURgSD+Lu9kMZoXLhwN9O+tukAlrNpJg1SzDH4QW/URgNYgZTkjA4UkwJUgGXng+6DX1zLfmoymdXo17xh5zmRJ6Q42BWCfc2oJfdAr+Yv+AP9Cb7OJ3H/2JG1HNGz/84klThPVCc=);strokeColor=#c8c8c8;spacingTop=-1;spacingBottom=-1;spacingLeft=-1;spacingRight=-1;labelBackgroundColor=none;rounded=0;html=1;whiteSpace=wrap;" vertex="1" parent="kyNgz95rOWbvNQYz7ga9-174">
          <mxGeometry x="305" y="126" width="101" height="76" as="geometry"/>
        </mxCell>
        <mxCell id="kyNgz95rOWbvNQYz7ga9-178" value="&lt;font style=&quot;font-size:11px;font-family:Calibri;color:#feffff;direction:ltr;letter-spacing:0px;line-height:120%;opacity:1&quot;&gt;Export UV Map Wireframe as JPEG&lt;br/&gt;&lt;/font&gt;" style="verticalAlign=middle;align=center;vsdxID=5;fillColor=#4672c4;gradientColor=none;shape=stencil(nZBLDoAgDERP0z3SIyjew0SURgSD+Lu9kMZoXLhwN9O+tukAlrNpJg1SzDH4QW/URgNYgZTkjA4UkwJUgGXng+6DX1zLfmoymdXo17xh5zmRJ6Q42BWCfc2oJfdAr+Yv+AP9Cb7OJ3H/2JG1HNGz/84klThPVCc=);strokeColor=#c8c8c8;spacingTop=-1;spacingBottom=-1;spacingLeft=-1;spacingRight=-1;labelBackgroundColor=none;rounded=0;html=1;whiteSpace=wrap;" vertex="1" parent="kyNgz95rOWbvNQYz7ga9-174">
          <mxGeometry x="457" y="253" width="101" height="76" as="geometry"/>
        </mxCell>
        <mxCell id="kyNgz95rOWbvNQYz7ga9-179" value="&lt;font style=&quot;font-size:11px;font-family:Calibri;color:#feffff;direction:ltr;letter-spacing:0px;line-height:120%;opacity:1&quot;&gt;Export as OBJ format&lt;br/&gt;&lt;/font&gt;" style="verticalAlign=middle;align=center;vsdxID=7;fillColor=#4672c4;gradientColor=none;shape=stencil(nZBLDoAgDERP0z3SIyjew0SURgSD+Lu9kMZoXLhwN9O+tukAlrNpJg1SzDH4QW/URgNYgZTkjA4UkwJUgGXng+6DX1zLfmoymdXo17xh5zmRJ6Q42BWCfc2oJfdAr+Yv+AP9Cb7OJ3H/2JG1HNGz/84klThPVCc=);strokeColor=#c8c8c8;spacingTop=-1;spacingBottom=-1;spacingLeft=-1;spacingRight=-1;labelBackgroundColor=none;rounded=0;html=1;whiteSpace=wrap;" vertex="1" parent="kyNgz95rOWbvNQYz7ga9-174">
          <mxGeometry x="610" y="126" width="101" height="76" as="geometry"/>
        </mxCell>
        <mxCell id="kyNgz95rOWbvNQYz7ga9-180" value="&lt;font style=&quot;font-size:11px;font-family:Calibri;color:#feffff;direction:ltr;letter-spacing:0px;line-height:120%;opacity:1&quot;&gt;Import OBJ file&lt;br/&gt;&lt;/font&gt;" style="verticalAlign=middle;align=center;vsdxID=20;fillColor=#4672c4;gradientColor=none;shape=stencil(nZBLDoAgDERP0z3SIyjew0SURgSD+Lu9kMZoXLhwN9O+tukAlrNpJg1SzDH4QW/URgNYgZTkjA4UkwJUgGXng+6DX1zLfmoymdXo17xh5zmRJ6Q42BWCfc2oJfdAr+Yv+AP9Cb7OJ3H/2JG1HNGz/84klThPVCc=);strokeColor=#c8c8c8;spacingTop=-1;spacingBottom=-1;spacingLeft=-1;spacingRight=-1;labelBackgroundColor=none;rounded=0;html=1;whiteSpace=wrap;" vertex="1" parent="kyNgz95rOWbvNQYz7ga9-174">
          <mxGeometry x="1191" y="127" width="101" height="76" as="geometry"/>
        </mxCell>
        <mxCell id="kyNgz95rOWbvNQYz7ga9-181" value="&lt;font style=&quot;font-size:11px;font-family:Calibri;color:#feffff;direction:ltr;letter-spacing:0px;line-height:120%;opacity:1&quot;&gt;Rename MeshName&lt;br/&gt;&lt;/font&gt;" style="verticalAlign=middle;align=center;vsdxID=21;fillColor=#4672c4;gradientColor=none;shape=stencil(nZBLDoAgDERP0z3SIyjew0SURgSD+Lu9kMZoXLhwN9O+tukAlrNpJg1SzDH4QW/URgNYgZTkjA4UkwJUgGXng+6DX1zLfmoymdXo17xh5zmRJ6Q42BWCfc2oJfdAr+Yv+AP9Cb7OJ3H/2JG1HNGz/84klThPVCc=);strokeColor=#c8c8c8;spacingTop=-1;spacingBottom=-1;spacingLeft=-1;spacingRight=-1;labelBackgroundColor=none;rounded=0;html=1;whiteSpace=wrap;" vertex="1" parent="kyNgz95rOWbvNQYz7ga9-174">
          <mxGeometry x="1344" y="127" width="101" height="76" as="geometry"/>
        </mxCell>
        <mxCell id="kyNgz95rOWbvNQYz7ga9-182" value="&lt;font style=&quot;font-size:11px;font-family:Calibri;color:#feffff;direction:ltr;letter-spacing:0px;line-height:120%;opacity:1&quot;&gt;Check UV Map&lt;br/&gt;&lt;/font&gt;" style="verticalAlign=middle;align=center;vsdxID=23;fillColor=#4672c4;gradientColor=none;shape=stencil(nZBLDoAgDERP0z3SIyjew0SURgSD+Lu9kMZoXLhwN9O+tukAlrNpJg1SzDH4QW/URgNYgZTkjA4UkwJUgGXng+6DX1zLfmoymdXo17xh5zmRJ6Q42BWCfc2oJfdAr+Yv+AP9Cb7OJ3H/2JG1HNGz/84klThPVCc=);strokeColor=#c8c8c8;spacingTop=-1;spacingBottom=-1;spacingLeft=-1;spacingRight=-1;labelBackgroundColor=none;rounded=0;html=1;whiteSpace=wrap;" vertex="1" parent="kyNgz95rOWbvNQYz7ga9-174">
          <mxGeometry x="1496" y="127" width="101" height="76" as="geometry"/>
        </mxCell>
        <mxCell id="kyNgz95rOWbvNQYz7ga9-183" style="vsdxID=24;fillColor=#345593;gradientColor=none;shape=stencil(UzV2Ls5ILEhVNTIoLinKz04tz0wpyVA1dlE1MsrMy0gtyiwBslSNXVWNndPyi1LTi/JL81Ig/IJEkEoQKze/DGRCBUSfAUiHkUElhGcK4bpBVOZk5iGpNEVVikeloQHZpsK0YlWLz1QgA+HFtMycHEgIIcujBwlQCBKcxq4A);strokeColor=#31528f;spacingTop=-1;spacingBottom=-1;spacingLeft=-1;spacingRight=-1;labelBackgroundColor=none;rounded=0;html=1;whiteSpace=wrap;" vertex="1" parent="kyNgz95rOWbvNQYz7ga9-174">
          <mxGeometry x="1648" y="127" width="101" height="76" as="geometry"/>
        </mxCell>
        <mxCell id="kyNgz95rOWbvNQYz7ga9-184" value="&lt;font style=&quot;font-size:11px;font-family:Calibri;color:#feffff;direction:ltr;letter-spacing:0px;line-height:120%;opacity:1&quot;&gt;Is The UV Map show correctly?&lt;br/&gt;&lt;/font&gt;" style="text;vsdxID=24;fillColor=none;gradientColor=none;strokeColor=none;spacingTop=-1;spacingBottom=-1;spacingLeft=-1;spacingRight=-1;labelBackgroundColor=none;rounded=0;html=1;whiteSpace=wrap;verticalAlign=middle;align=center;;html=1;" vertex="1" parent="kyNgz95rOWbvNQYz7ga9-183">
          <mxGeometry x="8.47" y="9.33" width="84.67" height="57.15" as="geometry"/>
        </mxCell>
        <mxCell id="kyNgz95rOWbvNQYz7ga9-185" value="&lt;font style=&quot;font-size:11px;font-family:Calibri;color:#feffff;direction:ltr;letter-spacing:0px;line-height:120%;opacity:1&quot;&gt;Create AOE3 Shader&lt;br/&gt;&lt;/font&gt;" style="verticalAlign=middle;align=center;vsdxID=32;fillColor=#4672c4;gradientColor=none;shape=stencil(nZBLDoAgDERP0z3SIyjew0SURgSD+Lu9kMZoXLhwN9O+tukAlrNpJg1SzDH4QW/URgNYgZTkjA4UkwJUgGXng+6DX1zLfmoymdXo17xh5zmRJ6Q42BWCfc2oJfdAr+Yv+AP9Cb7OJ3H/2JG1HNGz/84klThPVCc=);strokeColor=#c8c8c8;spacingTop=-1;spacingBottom=-1;spacingLeft=-1;spacingRight=-1;labelBackgroundColor=none;rounded=0;html=1;whiteSpace=wrap;" vertex="1" parent="kyNgz95rOWbvNQYz7ga9-174">
          <mxGeometry x="1801" y="303" width="101" height="76" as="geometry"/>
        </mxCell>
        <mxCell id="kyNgz95rOWbvNQYz7ga9-186" value="&lt;font style=&quot;font-size:11px;font-family:Calibri;color:#feffff;direction:ltr;letter-spacing:0px;line-height:120%;opacity:1&quot;&gt;Check Mesh Normal Face&lt;br/&gt;&lt;/font&gt;" style="verticalAlign=middle;align=center;vsdxID=33;fillColor=#4672c4;gradientColor=none;shape=stencil(nZBLDoAgDERP0z3SIyjew0SURgSD+Lu9kMZoXLhwN9O+tukAlrNpJg1SzDH4QW/URgNYgZTkjA4UkwJUgGXng+6DX1zLfmoymdXo17xh5zmRJ6Q42BWCfc2oJfdAr+Yv+AP9Cb7OJ3H/2JG1HNGz/84klThPVCc=);strokeColor=#c8c8c8;spacingTop=-1;spacingBottom=-1;spacingLeft=-1;spacingRight=-1;labelBackgroundColor=none;rounded=0;html=1;whiteSpace=wrap;" vertex="1" parent="kyNgz95rOWbvNQYz7ga9-174">
          <mxGeometry x="1801" y="127" width="101" height="76" as="geometry"/>
        </mxCell>
        <mxCell id="kyNgz95rOWbvNQYz7ga9-187" style="vsdxID=34;fillColor=#345593;gradientColor=none;shape=stencil(UzV2Ls5ILEhVNTIoLinKz04tz0wpyVA1dlE1MsrMy0gtyiwBslSNXVWNndPyi1LTi/JL81Ig/IJEkEoQKze/DGRCBUSfAUiHkUElhGcK4bpBVOZk5iGpNEVVikeloQHZpsK0YlWLz1QgA+HFtMycHEgIIcujBwlQCBKcxq4A);strokeColor=#31528f;spacingTop=-1;spacingBottom=-1;spacingLeft=-1;spacingRight=-1;labelBackgroundColor=none;rounded=0;html=1;whiteSpace=wrap;" vertex="1" parent="kyNgz95rOWbvNQYz7ga9-174">
          <mxGeometry x="1953" y="127" width="101" height="76" as="geometry"/>
        </mxCell>
        <mxCell id="kyNgz95rOWbvNQYz7ga9-188" value="&lt;font style=&quot;font-size:11px;font-family:Calibri;color:#feffff;direction:ltr;letter-spacing:0px;line-height:120%;opacity:1&quot;&gt;There is any flipped face normal?&lt;br/&gt;&lt;/font&gt;" style="text;vsdxID=34;fillColor=none;gradientColor=none;strokeColor=none;spacingTop=-1;spacingBottom=-1;spacingLeft=-1;spacingRight=-1;labelBackgroundColor=none;rounded=0;html=1;whiteSpace=wrap;verticalAlign=middle;align=center;;html=1;" vertex="1" parent="kyNgz95rOWbvNQYz7ga9-187">
          <mxGeometry x="8.47" y="9.33" width="84.67" height="57.15" as="geometry"/>
        </mxCell>
        <mxCell id="kyNgz95rOWbvNQYz7ga9-189" value="&lt;font style=&quot;font-size:11px;font-family:Calibri;color:#feffff;direction:ltr;letter-spacing:0px;line-height:120%;opacity:1&quot;&gt;Flip Normal Face&lt;br/&gt;&lt;/font&gt;" style="verticalAlign=middle;align=center;vsdxID=35;fillColor=#4672c4;gradientColor=none;shape=stencil(nZBLDoAgDERP0z3SIyjew0SURgSD+Lu9kMZoXLhwN9O+tukAlrNpJg1SzDH4QW/URgNYgZTkjA4UkwJUgGXng+6DX1zLfmoymdXo17xh5zmRJ6Q42BWCfc2oJfdAr+Yv+AP9Cb7OJ3H/2JG1HNGz/84klThPVCc=);strokeColor=#c8c8c8;spacingTop=-1;spacingBottom=-1;spacingLeft=-1;spacingRight=-1;labelBackgroundColor=none;rounded=0;html=1;whiteSpace=wrap;" vertex="1" parent="kyNgz95rOWbvNQYz7ga9-174">
          <mxGeometry x="1953" y="303" width="101" height="76" as="geometry"/>
        </mxCell>
        <mxCell id="kyNgz95rOWbvNQYz7ga9-190" value="&lt;font style=&quot;font-size:11px;font-family:Calibri;color:#feffff;direction:ltr;letter-spacing:0px;line-height:120%;opacity:1&quot;&gt;Select Diffuse Map Alpha Channel Purpose&lt;br/&gt;&lt;/font&gt;" style="verticalAlign=middle;align=center;vsdxID=52;fillColor=#4672c4;gradientColor=none;shape=stencil(nZBLDoAgDERP0z3SIyjew0SURgSD+Lu9kMZoXLhwN9O+tukAlrNpJg1SzDH4QW/URgNYgZTkjA4UkwJUgGXng+6DX1zLfmoymdXo17xh5zmRJ6Q42BWCfc2oJfdAr+Yv+AP9Cb7OJ3H/2JG1HNGz/84klThPVCc=);strokeColor=#c8c8c8;spacingTop=-1;spacingBottom=-1;spacingLeft=-1;spacingRight=-1;labelBackgroundColor=none;rounded=0;html=1;whiteSpace=wrap;" vertex="1" parent="kyNgz95rOWbvNQYz7ga9-174">
          <mxGeometry x="1648" y="303" width="101" height="76" as="geometry"/>
        </mxCell>
        <mxCell id="kyNgz95rOWbvNQYz7ga9-191" value="&lt;font style=&quot;font-size:11px;font-family:Calibri;color:#feffff;direction:ltr;letter-spacing:0px;line-height:120%;opacity:1&quot;&gt;Insert Dummy TGA FilePath to Diffuse Map Slot&lt;br/&gt;&lt;/font&gt;" style="verticalAlign=middle;align=center;vsdxID=54;fillColor=#4672c4;gradientColor=none;shape=stencil(nZBLDoAgDERP0z3SIyjew0SURgSD+Lu9kMZoXLhwN9O+tukAlrNpJg1SzDH4QW/URgNYgZTkjA4UkwJUgGXng+6DX1zLfmoymdXo17xh5zmRJ6Q42BWCfc2oJfdAr+Yv+AP9Cb7OJ3H/2JG1HNGz/84klThPVCc=);strokeColor=#c8c8c8;spacingTop=-1;spacingBottom=-1;spacingLeft=-1;spacingRight=-1;labelBackgroundColor=none;rounded=0;html=1;whiteSpace=wrap;" vertex="1" parent="kyNgz95rOWbvNQYz7ga9-174">
          <mxGeometry x="1496" y="303" width="101" height="76" as="geometry"/>
        </mxCell>
        <mxCell id="kyNgz95rOWbvNQYz7ga9-192" style="vsdxID=59;fillColor=#345593;gradientColor=none;shape=stencil(UzV2Ls5ILEhVNTIoLinKz04tz0wpyVA1dlE1MsrMy0gtyiwBslSNXVWNndPyi1LTi/JL81Ig/IJEkEoQKze/DGRCBUSfAUiHkUElhGcK4bpBVOZk5iGpNEVVikeloQHZpsK0YlWLz1QgA+HFtMycHEgIIcujBwlQCBKcxq4A);strokeColor=#31528f;spacingTop=-1;spacingBottom=-1;spacingLeft=-1;spacingRight=-1;labelBackgroundColor=none;rounded=0;html=1;whiteSpace=wrap;" vertex="1" parent="kyNgz95rOWbvNQYz7ga9-174">
          <mxGeometry x="457" y="126" width="101" height="76" as="geometry"/>
        </mxCell>
        <mxCell id="kyNgz95rOWbvNQYz7ga9-193" value="&lt;font style=&quot;font-size:11px;font-family:Calibri;color:#feffff;direction:ltr;letter-spacing:0px;line-height:120%;opacity:1&quot;&gt;Texturing using Photoshop?&lt;br/&gt;&lt;/font&gt;" style="text;vsdxID=59;fillColor=none;gradientColor=none;strokeColor=none;spacingTop=-1;spacingBottom=-1;spacingLeft=-1;spacingRight=-1;labelBackgroundColor=none;rounded=0;html=1;whiteSpace=wrap;verticalAlign=middle;align=center;;html=1;" vertex="1" parent="kyNgz95rOWbvNQYz7ga9-192">
          <mxGeometry x="8.47" y="9.33" width="84.67" height="57.15" as="geometry"/>
        </mxCell>
        <mxCell id="kyNgz95rOWbvNQYz7ga9-194" value="&lt;font style=&quot;font-size:11px;font-family:Calibri;color:#3d64ac;direction:ltr;letter-spacing:0px;line-height:120%;opacity:1&quot;&gt;UV Map JPEG File&lt;br/&gt;&lt;/font&gt;" style="verticalAlign=middle;align=center;vsdxID=67;fillColor=#feffff;gradientColor=#5488eb;shape=stencil(tZLRDoIgFIafhkscQphdm70HS1QWiTtQ2tsH4ZbmvKitu3P+8/3wMw5ihW1FLxEl1oG5yEFVrkXsiChVXStBOV8hViJW1AZkA+bWVbHvRSBDdTX3cMIYfSQ4KHnELs+T/PBSThHWqtuEyTaYkp/RVQQBZz+FCd+lSbaPBpgcnCecR2mC+NaRZMRiVBaDccIp0y2epQU0EvvrcK1FsxjZQcp+JX8TMFsE/He+dJ7PF+/fr5XWcXnm889t8VLcNFY+AQ==);strokeColor=#3d64ac;spacingTop=-1;spacingBottom=-1;spacingLeft=-1;spacingRight=-1;labelBackgroundColor=none;rounded=0;html=1;whiteSpace=wrap;" vertex="1" parent="kyNgz95rOWbvNQYz7ga9-174">
          <mxGeometry x="762" y="314" width="101" height="76" as="geometry"/>
        </mxCell>
        <mxCell id="kyNgz95rOWbvNQYz7ga9-195" value="&lt;font style=&quot;font-size:11px;font-family:Calibri;color:#3d64ac;direction:ltr;letter-spacing:0px;line-height:120%;opacity:1&quot;&gt;Model OBJ File&lt;br/&gt;&lt;/font&gt;" style="verticalAlign=middle;align=center;vsdxID=70;fillColor=#feffff;gradientColor=#5488eb;shape=stencil(tZLRDoIgFIafhkscQphdm70HS1QWiTtQ2tsH4ZbmvKitu3P+8/3wMw5ihW1FLxEl1oG5yEFVrkXsiChVXStBOV8hViJW1AZkA+bWVbHvRSBDdTX3cMIYfSQ4KHnELs+T/PBSThHWqtuEyTaYkp/RVQQBZz+FCd+lSbaPBpgcnCecR2mC+NaRZMRiVBaDccIp0y2epQU0EvvrcK1FsxjZQcp+JX8TMFsE/He+dJ7PF+/fr5XWcXnm889t8VLcNFY+AQ==);strokeColor=#3d64ac;spacingTop=-1;spacingBottom=-1;spacingLeft=-1;spacingRight=-1;labelBackgroundColor=none;rounded=0;html=1;whiteSpace=wrap;" vertex="1" parent="kyNgz95rOWbvNQYz7ga9-174">
          <mxGeometry x="762" y="126" width="101" height="76" as="geometry"/>
        </mxCell>
        <mxCell id="kyNgz95rOWbvNQYz7ga9-196" value="&lt;font style=&quot;font-size:11px;font-family:Calibri;color:#feffff;direction:ltr;letter-spacing:0px;line-height:120%;opacity:1&quot;&gt;Select Mesh/Face Then Assign Shader&lt;br/&gt;&lt;/font&gt;" style="verticalAlign=middle;align=center;vsdxID=73;fillColor=#4672c4;gradientColor=none;shape=stencil(nZBLDoAgDERP0z3SIyjew0SURgSD+Lu9kMZoXLhwN9O+tukAlrNpJg1SzDH4QW/URgNYgZTkjA4UkwJUgGXng+6DX1zLfmoymdXo17xh5zmRJ6Q42BWCfc2oJfdAr+Yv+AP9Cb7OJ3H/2JG1HNGz/84klThPVCc=);strokeColor=#c8c8c8;spacingTop=-1;spacingBottom=-1;spacingLeft=-1;spacingRight=-1;labelBackgroundColor=none;rounded=0;html=1;whiteSpace=wrap;" vertex="1" parent="kyNgz95rOWbvNQYz7ga9-174">
          <mxGeometry x="1344" y="303" width="101" height="76" as="geometry"/>
        </mxCell>
        <mxCell id="kyNgz95rOWbvNQYz7ga9-197" value="&lt;font style=&quot;font-size:11px;font-family:Calibri;color:#feffff;direction:ltr;letter-spacing:0px;line-height:120%;opacity:1&quot;&gt;Select Mesh Then Export as GR2 format&lt;br/&gt;&lt;/font&gt;" style="verticalAlign=middle;align=center;vsdxID=75;fillColor=#4672c4;gradientColor=none;shape=stencil(nZBLDoAgDERP0z3SIyjew0SURgSD+Lu9kMZoXLhwN9O+tukAlrNpJg1SzDH4QW/URgNYgZTkjA4UkwJUgGXng+6DX1zLfmoymdXo17xh5zmRJ6Q42BWCfc2oJfdAr+Yv+AP9Cb7OJ3H/2JG1HNGz/84klThPVCc=);strokeColor=#c8c8c8;spacingTop=-1;spacingBottom=-1;spacingLeft=-1;spacingRight=-1;labelBackgroundColor=none;rounded=0;html=1;whiteSpace=wrap;" vertex="1" parent="kyNgz95rOWbvNQYz7ga9-174">
          <mxGeometry x="1344" y="470" width="101" height="76" as="geometry"/>
        </mxCell>
        <mxCell id="kyNgz95rOWbvNQYz7ga9-198" value="&lt;font style=&quot;font-size:11px;font-family:Calibri;color:#3d64ac;direction:ltr;letter-spacing:0px;line-height:120%;opacity:1&quot;&gt;Model GR2 File&lt;br/&gt;&lt;/font&gt;" style="verticalAlign=middle;align=center;vsdxID=77;fillColor=#feffff;gradientColor=#5488eb;shape=stencil(tZLRDoIgFIafhkscQphdm70HS1QWiTtQ2tsH4ZbmvKitu3P+8/3wMw5ihW1FLxEl1oG5yEFVrkXsiChVXStBOV8hViJW1AZkA+bWVbHvRSBDdTX3cMIYfSQ4KHnELs+T/PBSThHWqtuEyTaYkp/RVQQBZz+FCd+lSbaPBpgcnCecR2mC+NaRZMRiVBaDccIp0y2epQU0EvvrcK1FsxjZQcp+JX8TMFsE/He+dJ7PF+/fr5XWcXnm889t8VLcNFY+AQ==);strokeColor=#3d64ac;spacingTop=-1;spacingBottom=-1;spacingLeft=-1;spacingRight=-1;labelBackgroundColor=none;rounded=0;html=1;whiteSpace=wrap;" vertex="1" parent="kyNgz95rOWbvNQYz7ga9-174">
          <mxGeometry x="1496" y="470" width="101" height="76" as="geometry"/>
        </mxCell>
        <mxCell id="kyNgz95rOWbvNQYz7ga9-199" value="&lt;font style=&quot;font-size:11px;font-family:Calibri;color:#feffff;direction:ltr;letter-spacing:0px;line-height:120%;opacity:1&quot;&gt;Edit The Code&lt;br/&gt;&lt;/font&gt;" style="verticalAlign=middle;align=center;vsdxID=84;fillColor=#4672c4;gradientColor=none;shape=stencil(nZBLDoAgDERP0z3SIyjew0SURgSD+Lu9kMZoXLhwN9O+tukAlrNpJg1SzDH4QW/URgNYgZTkjA4UkwJUgGXng+6DX1zLfmoymdXo17xh5zmRJ6Q42BWCfc2oJfdAr+Yv+AP9Cb7OJ3H/2JG1HNGz/84klThPVCc=);strokeColor=#c8c8c8;spacingTop=-1;spacingBottom=-1;spacingLeft=-1;spacingRight=-1;labelBackgroundColor=none;rounded=0;html=1;whiteSpace=wrap;" vertex="1" parent="kyNgz95rOWbvNQYz7ga9-174">
          <mxGeometry x="1815" y="766" width="101" height="76" as="geometry"/>
        </mxCell>
        <mxCell id="kyNgz95rOWbvNQYz7ga9-200" style="vsdxID=102;fillColor=#345593;gradientColor=none;shape=stencil(UzV2Ls5ILEhVNTIoLinKz04tz0wpyVA1dlE1MsrMy0gtyiwBslSNXVWNndPyi1LTi/JL81Ig/IJEkEoQKze/DGRCBUSfAUiHkUElhGcK4bpBVOZk5iGpNEVVikeloQHZpsK0YlWLz1QgA+HFtMycHEgIIcujBwlQCBKcxq4A);strokeColor=#31528f;spacingTop=-1;spacingBottom=-1;spacingLeft=-1;spacingRight=-1;labelBackgroundColor=none;rounded=0;html=1;whiteSpace=wrap;" vertex="1" parent="kyNgz95rOWbvNQYz7ga9-174">
          <mxGeometry x="914" y="126" width="101" height="76" as="geometry"/>
        </mxCell>
        <mxCell id="kyNgz95rOWbvNQYz7ga9-201" value="&lt;font style=&quot;font-size:11px;font-family:Calibri;color:#feffff;direction:ltr;letter-spacing:0px;line-height:120%;opacity:1&quot;&gt;Texturing Using Substance Painter?&lt;br/&gt;&lt;/font&gt;" style="text;vsdxID=102;fillColor=none;gradientColor=none;strokeColor=none;spacingTop=-1;spacingBottom=-1;spacingLeft=-1;spacingRight=-1;labelBackgroundColor=none;rounded=0;html=1;whiteSpace=wrap;verticalAlign=middle;align=center;;html=1;" vertex="1" parent="kyNgz95rOWbvNQYz7ga9-200">
          <mxGeometry x="8.47" y="9.33" width="84.67" height="57.15" as="geometry"/>
        </mxCell>
        <mxCell id="kyNgz95rOWbvNQYz7ga9-202" value="&lt;font style=&quot;font-size:11px;font-family:Calibri;color:#feffff;direction:ltr;letter-spacing:0px;line-height:120%;opacity:1&quot;&gt;Import OBJ file&lt;br/&gt;&lt;/font&gt;" style="verticalAlign=middle;align=center;vsdxID=107;fillColor=#4672c4;gradientColor=none;shape=stencil(nZBLDoAgDERP0z3SIyjew0SURgSD+Lu9kMZoXLhwN9O+tukAlrNpJg1SzDH4QW/URgNYgZTkjA4UkwJUgGXng+6DX1zLfmoymdXo17xh5zmRJ6Q42BWCfc2oJfdAr+Yv+AP9Cb7OJ3H/2JG1HNGz/84klThPVCc=);strokeColor=#c8c8c8;spacingTop=-1;spacingBottom=-1;spacingLeft=-1;spacingRight=-1;labelBackgroundColor=none;rounded=0;html=1;whiteSpace=wrap;" vertex="1" parent="kyNgz95rOWbvNQYz7ga9-174">
          <mxGeometry x="152" y="688" width="101" height="76" as="geometry"/>
        </mxCell>
        <mxCell id="kyNgz95rOWbvNQYz7ga9-203" style="vsdxID=130;fillColor=#345593;gradientColor=none;shape=stencil(UzV2Ls5ILEhVNTIoLinKz04tz0wpyVA1dlE1MsrMy0gtyiwBslSNXVWNndPyi1LTi/JL81Ig/IJEkEoQKze/DGRCBUSfAUiHkUElhGcK4bpBVOZk5iGpNEVVikeloQHZpsK0YlWLz1QgA+HFtMycHEgIIcujBwlQCBKcxq4A);strokeColor=#31528f;spacingTop=-1;spacingBottom=-1;spacingLeft=-1;spacingRight=-1;labelBackgroundColor=none;rounded=0;html=1;whiteSpace=wrap;" vertex="1" parent="kyNgz95rOWbvNQYz7ga9-174">
          <mxGeometry x="1191" y="303" width="101" height="76" as="geometry"/>
        </mxCell>
        <mxCell id="kyNgz95rOWbvNQYz7ga9-204" value="&lt;font style=&quot;font-size:11px;font-family:Calibri;color:#feffff;direction:ltr;letter-spacing:0px;line-height:120%;opacity:1&quot;&gt;Want to Assign Multiple Shader to The Mesh?&lt;br/&gt;&lt;/font&gt;" style="text;vsdxID=130;fillColor=none;gradientColor=none;strokeColor=none;spacingTop=-1;spacingBottom=-1;spacingLeft=-1;spacingRight=-1;labelBackgroundColor=none;rounded=0;html=1;whiteSpace=wrap;verticalAlign=middle;align=center;;html=1;" vertex="1" parent="kyNgz95rOWbvNQYz7ga9-203">
          <mxGeometry x="8.47" y="9.33" width="84.67" height="57.15" as="geometry"/>
        </mxCell>
        <mxCell id="kyNgz95rOWbvNQYz7ga9-205" value="&lt;font style=&quot;font-size:11px;font-family:Calibri;color:#feffff;direction:ltr;letter-spacing:0px;line-height:120%;opacity:1&quot;&gt;Adjust Object Pivot&lt;br/&gt;&lt;/font&gt;" style="verticalAlign=middle;align=center;vsdxID=133;fillColor=#4672c4;gradientColor=none;shape=stencil(nZBLDoAgDERP0z3SIyjew0SURgSD+Lu9kMZoXLhwN9O+tukAlrNpJg1SzDH4QW/URgNYgZTkjA4UkwJUgGXng+6DX1zLfmoymdXo17xh5zmRJ6Q42BWCfc2oJfdAr+Yv+AP9Cb7OJ3H/2JG1HNGz/84klThPVCc=);strokeColor=#c8c8c8;spacingTop=-1;spacingBottom=-1;spacingLeft=-1;spacingRight=-1;labelBackgroundColor=none;rounded=0;html=1;whiteSpace=wrap;" vertex="1" parent="kyNgz95rOWbvNQYz7ga9-174">
          <mxGeometry x="1191" y="470" width="101" height="76" as="geometry"/>
        </mxCell>
        <mxCell id="kyNgz95rOWbvNQYz7ga9-206" value="" style="verticalAlign=middle;align=center;vsdxID=152;fillColor=#4672c4;gradientColor=none;shape=stencil(nZBLDoAgDERP0z3SIyjew0SURgSD+Lu9kMZoXLhwN9O+tukAlrNpJg1SzDH4QW/URgNYgZTkjA4UkwJUgGXng+6DX1zLfmoymdXo17xh5zmRJ6Q42BWCfc2oJfdAr+Yv+AP9Cb7OJ3H/2JG1HNGz/84klThPVCc=);strokeColor=#c8c8c8;spacingTop=-1;spacingBottom=-1;spacingLeft=-1;spacingRight=-1;labelBackgroundColor=none;rounded=0;html=1;whiteSpace=wrap;" vertex="1" parent="kyNgz95rOWbvNQYz7ga9-174">
          <mxGeometry x="1648" y="470" width="101" height="76" as="geometry"/>
        </mxCell>
        <mxCell id="kyNgz95rOWbvNQYz7ga9-207" value="Connector" parent="0"/>
        <mxCell id="kyNgz95rOWbvNQYz7ga9-208" style="vsdxID=153;edgeStyle=none;startArrow=none;endArrow=block;startSize=5;endSize=5;strokeColor=#4672c4;spacingTop=0;spacingBottom=0;spacingLeft=0;spacingRight=0;verticalAlign=middle;html=1;labelBackgroundColor=#ffffff;rounded=0;exitX=1.00990099009901;exitY=0.5;exitDx=0;exitDy=0;exitPerimeter=0;entryX=0;entryY=0.5;entryDx=0;entryDy=0;entryPerimeter=0;" edge="1" parent="kyNgz95rOWbvNQYz7ga9-207" source="kyNgz95rOWbvNQYz7ga9-198" target="kyNgz95rOWbvNQYz7ga9-206">
          <mxGeometry relative="1" as="geometry">
            <mxPoint as="offset"/>
            <Array as="points"/>
          </mxGeometry>
        </mxCell>
        <mxCell id="kyNgz95rOWbvNQYz7ga9-209" value="" style="vsdxID=103;edgeStyle=none;startArrow=none;endArrow=block;startSize=5;endSize=5;strokeColor=#4672c4;spacingTop=0;spacingBottom=0;spacingLeft=0;spacingRight=0;verticalAlign=middle;html=1;labelBackgroundColor=#ffffff;rounded=0;align=center;exitX=1.00990099009901;exitY=0.5;exitDx=0;exitDy=0;exitPerimeter=0;entryX=0;entryY=0.5;entryDx=0;entryDy=0;entryPerimeter=0;" edge="1" parent="kyNgz95rOWbvNQYz7ga9-207" source="kyNgz95rOWbvNQYz7ga9-200" target="kyNgz95rOWbvNQYz7ga9-180">
          <mxGeometry relative="1" as="geometry">
            <mxPoint x="-1" as="offset"/>
            <Array as="points">
              <mxPoint x="1041.4" y="164"/>
              <mxPoint x="1041.4" y="164.35000000000002"/>
            </Array>
          </mxGeometry>
        </mxCell>
        <mxCell id="kyNgz95rOWbvNQYz7ga9-210" style="vsdxID=74;edgeStyle=none;startArrow=none;endArrow=block;startSize=5;endSize=5;strokeColor=#4672c4;spacingTop=0;spacingBottom=0;spacingLeft=0;spacingRight=0;verticalAlign=middle;html=1;labelBackgroundColor=#ffffff;rounded=0;exitX=0;exitY=0.5;exitDx=0;exitDy=0;exitPerimeter=0;entryX=1;entryY=0.5;entryDx=0;entryDy=0;entryPerimeter=0;" edge="1" parent="kyNgz95rOWbvNQYz7ga9-207" source="kyNgz95rOWbvNQYz7ga9-191" target="kyNgz95rOWbvNQYz7ga9-196">
          <mxGeometry relative="1" as="geometry">
            <mxPoint x="-1" as="offset"/>
            <Array as="points"/>
          </mxGeometry>
        </mxCell>
        <mxCell id="kyNgz95rOWbvNQYz7ga9-211" value="" style="vsdxID=71;edgeStyle=none;startArrow=none;endArrow=block;startSize=5;endSize=5;strokeColor=#4672c4;spacingTop=0;spacingBottom=0;spacingLeft=0;spacingRight=0;verticalAlign=middle;html=1;labelBackgroundColor=#ffffff;rounded=0;align=center;exitX=1.00990099009901;exitY=0.5;exitDx=0;exitDy=0;exitPerimeter=0;entryX=0;entryY=0.5;entryDx=0;entryDy=0;entryPerimeter=0;" edge="1" parent="kyNgz95rOWbvNQYz7ga9-207" source="kyNgz95rOWbvNQYz7ga9-195" target="kyNgz95rOWbvNQYz7ga9-200">
          <mxGeometry relative="1" as="geometry">
            <mxPoint as="offset"/>
            <Array as="points"/>
          </mxGeometry>
        </mxCell>
        <mxCell id="kyNgz95rOWbvNQYz7ga9-212" value="&lt;font style=&quot;font-size:11px;font-family:Calibri;color:#345593;direction:ltr;letter-spacing:0px;line-height:120%;opacity:1&quot;&gt;No&lt;br/&gt;&lt;/font&gt;" style="vsdxID=62;edgeStyle=none;startArrow=none;endArrow=block;startSize=5;endSize=5;strokeColor=#4672c4;spacingTop=0;spacingBottom=0;spacingLeft=0;spacingRight=0;verticalAlign=middle;html=1;labelBackgroundColor=#ffffff;rounded=0;align=center;exitX=1.00990099009901;exitY=0.5;exitDx=0;exitDy=0;exitPerimeter=0;entryX=0;entryY=0.5;entryDx=0;entryDy=0;entryPerimeter=0;" edge="1" parent="kyNgz95rOWbvNQYz7ga9-207" source="kyNgz95rOWbvNQYz7ga9-192" target="kyNgz95rOWbvNQYz7ga9-179">
          <mxGeometry relative="1" as="geometry">
            <mxPoint as="offset"/>
            <Array as="points"/>
          </mxGeometry>
        </mxCell>
        <mxCell id="kyNgz95rOWbvNQYz7ga9-213" style="vsdxID=58;edgeStyle=none;startArrow=none;endArrow=block;startSize=5;endSize=5;strokeColor=#4672c4;spacingTop=0;spacingBottom=0;spacingLeft=0;spacingRight=0;verticalAlign=middle;html=1;labelBackgroundColor=#ffffff;rounded=0;exitX=1;exitY=0.5;exitDx=0;exitDy=0;exitPerimeter=0;entryX=0;entryY=0.5;entryDx=0;entryDy=0;entryPerimeter=0;" edge="1" parent="kyNgz95rOWbvNQYz7ga9-207" source="kyNgz95rOWbvNQYz7ga9-177" target="kyNgz95rOWbvNQYz7ga9-192">
          <mxGeometry relative="1" as="geometry">
            <mxPoint as="offset"/>
            <Array as="points"/>
          </mxGeometry>
        </mxCell>
        <mxCell id="kyNgz95rOWbvNQYz7ga9-214" style="vsdxID=55;edgeStyle=none;startArrow=none;endArrow=block;startSize=5;endSize=5;strokeColor=#4672c4;spacingTop=0;spacingBottom=0;spacingLeft=0;spacingRight=0;verticalAlign=middle;html=1;labelBackgroundColor=#ffffff;rounded=0;exitX=0;exitY=0.5;exitDx=0;exitDy=0;exitPerimeter=0;entryX=1.00990099009901;entryY=0.5;entryDx=0;entryDy=0;entryPerimeter=0;" edge="1" parent="kyNgz95rOWbvNQYz7ga9-207" source="kyNgz95rOWbvNQYz7ga9-190" target="kyNgz95rOWbvNQYz7ga9-191">
          <mxGeometry relative="1" as="geometry">
            <mxPoint x="-1" as="offset"/>
            <Array as="points"/>
          </mxGeometry>
        </mxCell>
        <mxCell id="kyNgz95rOWbvNQYz7ga9-215" style="vsdxID=53;edgeStyle=none;startArrow=none;endArrow=block;startSize=5;endSize=5;strokeColor=#4672c4;spacingTop=0;spacingBottom=0;spacingLeft=0;spacingRight=0;verticalAlign=middle;html=1;labelBackgroundColor=#ffffff;rounded=0;exitX=0;exitY=0.5;exitDx=0;exitDy=0;exitPerimeter=0;entryX=1.00990099009901;entryY=0.5;entryDx=0;entryDy=0;entryPerimeter=0;" edge="1" parent="kyNgz95rOWbvNQYz7ga9-207" source="kyNgz95rOWbvNQYz7ga9-185" target="kyNgz95rOWbvNQYz7ga9-190">
          <mxGeometry relative="1" as="geometry">
            <mxPoint x="-1" as="offset"/>
            <Array as="points"/>
          </mxGeometry>
        </mxCell>
        <mxCell id="kyNgz95rOWbvNQYz7ga9-216" style="vsdxID=43;edgeStyle=none;startArrow=none;endArrow=block;startSize=5;endSize=5;strokeColor=#4672c4;spacingTop=0;spacingBottom=0;spacingLeft=0;spacingRight=0;verticalAlign=middle;html=1;labelBackgroundColor=#ffffff;rounded=0;exitX=0;exitY=0.5;exitDx=0;exitDy=0;exitPerimeter=0;entryX=1;entryY=0.5;entryDx=0;entryDy=0;entryPerimeter=0;" edge="1" parent="kyNgz95rOWbvNQYz7ga9-207" source="kyNgz95rOWbvNQYz7ga9-189" target="kyNgz95rOWbvNQYz7ga9-185">
          <mxGeometry relative="1" as="geometry">
            <mxPoint x="-1" as="offset"/>
            <Array as="points"/>
          </mxGeometry>
        </mxCell>
        <mxCell id="kyNgz95rOWbvNQYz7ga9-217" style="vsdxID=39;edgeStyle=none;startArrow=none;endArrow=block;startSize=5;endSize=5;strokeColor=#4672c4;spacingTop=0;spacingBottom=0;spacingLeft=0;spacingRight=0;verticalAlign=middle;html=1;labelBackgroundColor=#ffffff;rounded=0;exitX=1;exitY=0.5;exitDx=0;exitDy=0;exitPerimeter=0;entryX=0;entryY=0.5;entryDx=0;entryDy=0;entryPerimeter=0;" edge="1" parent="kyNgz95rOWbvNQYz7ga9-207" source="kyNgz95rOWbvNQYz7ga9-186" target="kyNgz95rOWbvNQYz7ga9-187">
          <mxGeometry relative="1" as="geometry">
            <mxPoint as="offset"/>
            <Array as="points"/>
          </mxGeometry>
        </mxCell>
        <mxCell id="kyNgz95rOWbvNQYz7ga9-218" style="vsdxID=37;edgeStyle=none;startArrow=none;endArrow=block;startSize=5;endSize=5;strokeColor=#4672c4;spacingTop=0;spacingBottom=0;spacingLeft=0;spacingRight=0;verticalAlign=middle;html=1;labelBackgroundColor=#ffffff;rounded=0;exitX=1.00990099009901;exitY=0.5;exitDx=0;exitDy=0;exitPerimeter=0;entryX=0;entryY=0.5;entryDx=0;entryDy=0;entryPerimeter=0;" edge="1" parent="kyNgz95rOWbvNQYz7ga9-207" source="kyNgz95rOWbvNQYz7ga9-182" target="kyNgz95rOWbvNQYz7ga9-183">
          <mxGeometry relative="1" as="geometry">
            <mxPoint as="offset"/>
            <Array as="points"/>
          </mxGeometry>
        </mxCell>
        <mxCell id="kyNgz95rOWbvNQYz7ga9-219" style="vsdxID=26;edgeStyle=none;startArrow=none;endArrow=block;startSize=5;endSize=5;strokeColor=#4672c4;spacingTop=0;spacingBottom=0;spacingLeft=0;spacingRight=0;verticalAlign=middle;html=1;labelBackgroundColor=#ffffff;rounded=0;exitX=1;exitY=0.5;exitDx=0;exitDy=0;exitPerimeter=0;entryX=0;entryY=0.5;entryDx=0;entryDy=0;entryPerimeter=0;" edge="1" parent="kyNgz95rOWbvNQYz7ga9-207" source="kyNgz95rOWbvNQYz7ga9-179" target="kyNgz95rOWbvNQYz7ga9-195">
          <mxGeometry relative="1" as="geometry">
            <mxPoint as="offset"/>
            <Array as="points"/>
          </mxGeometry>
        </mxCell>
        <mxCell id="kyNgz95rOWbvNQYz7ga9-220" style="vsdxID=3;edgeStyle=none;startArrow=none;endArrow=block;startSize=5;endSize=5;strokeColor=#4672c4;spacingTop=0;spacingBottom=0;spacingLeft=0;spacingRight=0;verticalAlign=middle;html=1;labelBackgroundColor=#ffffff;rounded=0;exitX=1.00990099009901;exitY=0.5;exitDx=0;exitDy=0;exitPerimeter=0;entryX=0;entryY=0.5;entryDx=0;entryDy=0;entryPerimeter=0;" edge="1" parent="kyNgz95rOWbvNQYz7ga9-207" source="kyNgz95rOWbvNQYz7ga9-175" target="kyNgz95rOWbvNQYz7ga9-176">
          <mxGeometry relative="1" as="geometry">
            <mxPoint as="offset"/>
            <Array as="points"/>
          </mxGeometry>
        </mxCell>
        <mxCell id="kyNgz95rOWbvNQYz7ga9-221" style="vsdxID=8;edgeStyle=none;startArrow=none;endArrow=block;startSize=5;endSize=5;strokeColor=#4672c4;spacingTop=0;spacingBottom=0;spacingLeft=0;spacingRight=0;verticalAlign=middle;html=1;labelBackgroundColor=#ffffff;rounded=0;exitX=1.00990099009901;exitY=0.5;exitDx=0;exitDy=0;exitPerimeter=0;entryX=0;entryY=0.5;entryDx=0;entryDy=0;entryPerimeter=0;" edge="1" parent="kyNgz95rOWbvNQYz7ga9-207" source="kyNgz95rOWbvNQYz7ga9-176" target="kyNgz95rOWbvNQYz7ga9-177">
          <mxGeometry relative="1" as="geometry">
            <mxPoint as="offset"/>
            <Array as="points"/>
          </mxGeometry>
        </mxCell>
        <mxCell id="kyNgz95rOWbvNQYz7ga9-222" style="vsdxID=9;edgeStyle=none;startArrow=none;endArrow=block;startSize=5;endSize=5;strokeColor=#4672c4;spacingTop=0;spacingBottom=0;spacingLeft=0;spacingRight=0;verticalAlign=middle;html=1;labelBackgroundColor=#ffffff;rounded=0;exitX=1;exitY=0.5;exitDx=0;exitDy=0;exitPerimeter=0;entryX=0;entryY=0.5;entryDx=0;entryDy=0;entryPerimeter=0;" edge="1" parent="kyNgz95rOWbvNQYz7ga9-207" source="kyNgz95rOWbvNQYz7ga9-177" target="kyNgz95rOWbvNQYz7ga9-192">
          <mxGeometry relative="1" as="geometry">
            <mxPoint as="offset"/>
            <Array as="points"/>
          </mxGeometry>
        </mxCell>
        <mxCell id="kyNgz95rOWbvNQYz7ga9-223" style="vsdxID=154;edgeStyle=none;startArrow=none;endArrow=block;startSize=5;endSize=5;strokeColor=#4672c4;spacingTop=0;spacingBottom=0;spacingLeft=0;spacingRight=0;verticalAlign=middle;html=1;labelBackgroundColor=#ffffff;rounded=0;exitX=1;exitY=0.5;exitDx=0;exitDy=0;exitPerimeter=0;entryX=0;entryY=0.5;entryDx=0;entryDy=0;entryPerimeter=0;" edge="1" parent="kyNgz95rOWbvNQYz7ga9-207" source="kyNgz95rOWbvNQYz7ga9-197" target="kyNgz95rOWbvNQYz7ga9-198">
          <mxGeometry relative="1" as="geometry">
            <mxPoint as="offset"/>
            <Array as="points"/>
          </mxGeometry>
        </mxCell>
        <mxCell id="kyNgz95rOWbvNQYz7ga9-224" style="vsdxID=144;edgeStyle=none;startArrow=none;endArrow=block;startSize=5;endSize=5;strokeColor=#4672c4;spacingTop=0;spacingBottom=0;spacingLeft=0;spacingRight=0;verticalAlign=middle;html=1;labelBackgroundColor=#ffffff;rounded=0;exitX=1.00990099009901;exitY=0.5;exitDx=0;exitDy=0;exitPerimeter=0;entryX=0;entryY=0.5;entryDx=0;entryDy=0;entryPerimeter=0;" edge="1" parent="kyNgz95rOWbvNQYz7ga9-207" source="kyNgz95rOWbvNQYz7ga9-205" target="kyNgz95rOWbvNQYz7ga9-197">
          <mxGeometry relative="1" as="geometry">
            <mxPoint as="offset"/>
            <Array as="points"/>
          </mxGeometry>
        </mxCell>
        <mxCell id="kyNgz95rOWbvNQYz7ga9-225" value="&lt;font style=&quot;font-size:11px;font-family:Calibri;color:#345593;direction:ltr;letter-spacing:0px;line-height:120%;opacity:1&quot;&gt;No&lt;br/&gt;&lt;/font&gt;" style="vsdxID=141;edgeStyle=none;startArrow=none;endArrow=block;startSize=5;endSize=5;strokeColor=#4672c4;spacingTop=0;spacingBottom=0;spacingLeft=0;spacingRight=0;verticalAlign=middle;html=1;labelBackgroundColor=#ffffff;rounded=0;align=center;exitX=0;exitY=0.5;exitDx=0;exitDy=0;exitPerimeter=0;entryX=0;entryY=0.5;entryDx=0;entryDy=0;entryPerimeter=0;" edge="1" parent="kyNgz95rOWbvNQYz7ga9-207" source="kyNgz95rOWbvNQYz7ga9-203" target="kyNgz95rOWbvNQYz7ga9-205">
          <mxGeometry relative="1" as="geometry">
            <mxPoint x="12" y="-1" as="offset"/>
            <Array as="points">
              <mxPoint x="1165.6" y="341"/>
              <mxPoint x="1165.6" y="507.95000000000005"/>
            </Array>
          </mxGeometry>
        </mxCell>
        <mxCell id="kyNgz95rOWbvNQYz7ga9-226" value="&lt;font style=&quot;font-size:11px;font-family:Calibri;color:#345593;direction:ltr;letter-spacing:0px;line-height:120%;opacity:1&quot;&gt;Yes&lt;br/&gt;&lt;/font&gt;" style="vsdxID=140;edgeStyle=none;startArrow=none;endArrow=block;startSize=5;endSize=5;strokeColor=#4672c4;spacingTop=0;spacingBottom=0;spacingLeft=0;spacingRight=0;verticalAlign=middle;html=1;labelBackgroundColor=#ffffff;rounded=0;align=center;exitX=0.504950495049505;exitY=1;exitDx=0;exitDy=0;exitPerimeter=0;entryX=0.504950495049505;entryY=1;entryDx=0;entryDy=0;entryPerimeter=0;" edge="1" parent="kyNgz95rOWbvNQYz7ga9-207" source="kyNgz95rOWbvNQYz7ga9-203" target="kyNgz95rOWbvNQYz7ga9-185">
          <mxGeometry relative="1" as="geometry">
            <mxPoint as="offset"/>
            <Array as="points">
              <mxPoint x="1242" y="416.6"/>
              <mxPoint x="1851.6" y="416.6"/>
            </Array>
          </mxGeometry>
        </mxCell>
        <mxCell id="kyNgz95rOWbvNQYz7ga9-227" style="vsdxID=138;edgeStyle=none;startArrow=none;endArrow=block;startSize=5;endSize=5;strokeColor=#4672c4;spacingTop=0;spacingBottom=0;spacingLeft=0;spacingRight=0;verticalAlign=middle;html=1;labelBackgroundColor=#ffffff;rounded=0;exitX=0;exitY=0.5;exitDx=0;exitDy=0;exitPerimeter=0;entryX=1.00990099009901;entryY=0.5;entryDx=0;entryDy=0;entryPerimeter=0;" edge="1" parent="kyNgz95rOWbvNQYz7ga9-207" source="kyNgz95rOWbvNQYz7ga9-196" target="kyNgz95rOWbvNQYz7ga9-203">
          <mxGeometry relative="1" as="geometry">
            <mxPoint x="-1" as="offset"/>
            <Array as="points"/>
          </mxGeometry>
        </mxCell>
        <mxCell id="kyNgz95rOWbvNQYz7ga9-228" value="&lt;font style=&quot;font-size:11px;font-family:Calibri;color:#345593;direction:ltr;letter-spacing:0px;line-height:120%;opacity:1&quot;&gt;Yes&lt;br/&gt;&lt;/font&gt;" style="vsdxID=137;edgeStyle=none;startArrow=none;endArrow=block;startSize=5;endSize=5;strokeColor=#4672c4;spacingTop=0;spacingBottom=0;spacingLeft=0;spacingRight=0;verticalAlign=middle;html=1;labelBackgroundColor=#ffffff;rounded=0;align=center;exitX=1.00990099009901;exitY=0.5;exitDx=0;exitDy=0;exitPerimeter=0;entryX=1.00990099009901;entryY=0.5;entryDx=0;entryDy=0;entryPerimeter=0;" edge="1" parent="kyNgz95rOWbvNQYz7ga9-207" source="kyNgz95rOWbvNQYz7ga9-187" target="kyNgz95rOWbvNQYz7ga9-189">
          <mxGeometry relative="1" as="geometry">
            <mxPoint x="12" as="offset"/>
            <Array as="points">
              <mxPoint x="2080.4" y="165"/>
              <mxPoint x="2080.4" y="340.95000000000005"/>
            </Array>
          </mxGeometry>
        </mxCell>
        <mxCell id="kyNgz95rOWbvNQYz7ga9-229" value="&lt;font style=&quot;font-size:11px;font-family:Calibri;color:#345593;direction:ltr;letter-spacing:0px;line-height:120%;opacity:1&quot;&gt;No&lt;br/&gt;&lt;/font&gt;" style="vsdxID=136;edgeStyle=none;startArrow=none;endArrow=block;startSize=5;endSize=5;strokeColor=#4672c4;spacingTop=0;spacingBottom=0;spacingLeft=0;spacingRight=0;verticalAlign=middle;html=1;labelBackgroundColor=#ffffff;rounded=0;align=center;exitX=0.504950495049505;exitY=1;exitDx=0;exitDy=0;exitPerimeter=0;entryX=0.504950495049505;entryY=0;entryDx=0;entryDy=0;entryPerimeter=0;" edge="1" parent="kyNgz95rOWbvNQYz7ga9-207" source="kyNgz95rOWbvNQYz7ga9-187" target="kyNgz95rOWbvNQYz7ga9-185">
          <mxGeometry relative="1" as="geometry">
            <mxPoint x="-1" as="offset"/>
            <Array as="points">
              <mxPoint x="2004" y="253.8"/>
              <mxPoint x="1851.6" y="253.8"/>
            </Array>
          </mxGeometry>
        </mxCell>
        <mxCell id="kyNgz95rOWbvNQYz7ga9-230" value="&lt;font style=&quot;font-size:11px;font-family:Calibri;color:#345593;direction:ltr;letter-spacing:0px;line-height:120%;opacity:1&quot;&gt;Yes&lt;br/&gt;&lt;/font&gt;" style="vsdxID=119;edgeStyle=none;startArrow=none;endArrow=block;startSize=5;endSize=5;strokeColor=#4672c4;spacingTop=0;spacingBottom=0;spacingLeft=0;spacingRight=0;verticalAlign=middle;html=1;labelBackgroundColor=#ffffff;rounded=0;align=center;exitX=0.504950495049505;exitY=1.013157894736842;exitDx=0;exitDy=0;exitPerimeter=0;entryX=0;entryY=0.5;entryDx=0;entryDy=0;entryPerimeter=0;" edge="1" parent="kyNgz95rOWbvNQYz7ga9-207" source="kyNgz95rOWbvNQYz7ga9-200" target="kyNgz95rOWbvNQYz7ga9-202">
          <mxGeometry relative="1" as="geometry">
            <mxPoint as="offset"/>
            <Array as="points">
              <mxPoint x="965" y="533.55"/>
              <mxPoint x="87.64" y="533.55"/>
              <mxPoint x="87.64" y="726.17"/>
            </Array>
          </mxGeometry>
        </mxCell>
        <mxCell id="kyNgz95rOWbvNQYz7ga9-231" style="vsdxID=106;edgeStyle=none;startArrow=none;endArrow=block;startSize=5;endSize=5;strokeColor=#4672c4;spacingTop=0;spacingBottom=0;spacingLeft=0;spacingRight=0;verticalAlign=middle;html=1;labelBackgroundColor=#ffffff;rounded=0;exitX=1.00990099009901;exitY=0.5;exitDx=0;exitDy=0;exitPerimeter=0;entryX=0.49504950495049505;entryY=1.013157894736842;entryDx=0;entryDy=0;entryPerimeter=0;" edge="1" parent="kyNgz95rOWbvNQYz7ga9-207" source="kyNgz95rOWbvNQYz7ga9-178" target="kyNgz95rOWbvNQYz7ga9-179">
          <mxGeometry relative="1" as="geometry">
            <mxPoint as="offset"/>
            <Array as="points">
              <mxPoint x="660.6" y="291"/>
            </Array>
          </mxGeometry>
        </mxCell>
        <mxCell id="kyNgz95rOWbvNQYz7ga9-232" style="vsdxID=105;edgeStyle=none;startArrow=none;endArrow=block;startSize=5;endSize=5;strokeColor=#4672c4;spacingTop=0;spacingBottom=0;spacingLeft=0;spacingRight=0;verticalAlign=middle;html=1;labelBackgroundColor=#ffffff;rounded=0;exitX=0.504950495049505;exitY=1.013157894736842;exitDx=0;exitDy=0;exitPerimeter=0;entryX=0;entryY=0.5;entryDx=0;entryDy=0;entryPerimeter=0;" edge="1" parent="kyNgz95rOWbvNQYz7ga9-207" source="kyNgz95rOWbvNQYz7ga9-178" target="kyNgz95rOWbvNQYz7ga9-194">
          <mxGeometry relative="1" as="geometry">
            <mxPoint as="offset"/>
            <Array as="points">
              <mxPoint x="508" y="352.04999999999995"/>
            </Array>
          </mxGeometry>
        </mxCell>
        <mxCell id="kyNgz95rOWbvNQYz7ga9-233" value="&lt;font style=&quot;font-size:11px;font-family:Calibri;color:#345593;direction:ltr;letter-spacing:0px;line-height:120%;opacity:1&quot;&gt;Yes&lt;br/&gt;&lt;/font&gt;" style="vsdxID=63;edgeStyle=none;startArrow=none;endArrow=block;startSize=5;endSize=5;strokeColor=#4672c4;spacingTop=0;spacingBottom=0;spacingLeft=0;spacingRight=0;verticalAlign=middle;html=1;labelBackgroundColor=#ffffff;rounded=0;align=center;exitX=0.504950495049505;exitY=1.013157894736842;exitDx=0;exitDy=0;exitPerimeter=0;entryX=0.504950495049505;entryY=0;entryDx=0;entryDy=0;entryPerimeter=0;" edge="1" parent="kyNgz95rOWbvNQYz7ga9-207" source="kyNgz95rOWbvNQYz7ga9-192" target="kyNgz95rOWbvNQYz7ga9-178">
          <mxGeometry relative="1" as="geometry">
            <mxPoint x="12" as="offset"/>
            <Array as="points"/>
          </mxGeometry>
        </mxCell>
        <mxCell id="kyNgz95rOWbvNQYz7ga9-234" value="&lt;font style=&quot;font-size:11px;font-family:Calibri;color:#345593;direction:ltr;letter-spacing:0px;line-height:120%;opacity:1&quot;&gt;Yes&lt;br/&gt;&lt;/font&gt;" style="vsdxID=38;edgeStyle=none;startArrow=none;endArrow=block;startSize=5;endSize=5;strokeColor=#4672c4;spacingTop=0;spacingBottom=0;spacingLeft=0;spacingRight=0;verticalAlign=middle;html=1;labelBackgroundColor=#ffffff;rounded=0;align=center;exitX=1.00990099009901;exitY=0.5;exitDx=0;exitDy=0;exitPerimeter=0;entryX=0;entryY=0.5;entryDx=0;entryDy=0;entryPerimeter=0;" edge="1" parent="kyNgz95rOWbvNQYz7ga9-207" source="kyNgz95rOWbvNQYz7ga9-183" target="kyNgz95rOWbvNQYz7ga9-186">
          <mxGeometry relative="1" as="geometry">
            <mxPoint as="offset"/>
            <Array as="points"/>
          </mxGeometry>
        </mxCell>
        <mxCell id="kyNgz95rOWbvNQYz7ga9-235" style="vsdxID=36;edgeStyle=none;startArrow=none;endArrow=block;startSize=5;endSize=5;strokeColor=#4672c4;spacingTop=0;spacingBottom=0;spacingLeft=0;spacingRight=0;verticalAlign=middle;html=1;labelBackgroundColor=#ffffff;rounded=0;exitX=1;exitY=0.5;exitDx=0;exitDy=0;exitPerimeter=0;entryX=0;entryY=0.5;entryDx=0;entryDy=0;entryPerimeter=0;" edge="1" parent="kyNgz95rOWbvNQYz7ga9-207" source="kyNgz95rOWbvNQYz7ga9-181" target="kyNgz95rOWbvNQYz7ga9-182">
          <mxGeometry relative="1" as="geometry">
            <mxPoint as="offset"/>
            <Array as="points"/>
          </mxGeometry>
        </mxCell>
        <mxCell id="kyNgz95rOWbvNQYz7ga9-236" value="&lt;font style=&quot;font-size:11px;font-family:Calibri;color:#345593;direction:ltr;letter-spacing:0px;line-height:120%;opacity:1&quot;&gt;No&lt;br/&gt;&lt;/font&gt;" style="vsdxID=31;edgeStyle=none;startArrow=none;endArrow=block;startSize=5;endSize=5;strokeColor=#4672c4;spacingTop=0;spacingBottom=0;spacingLeft=0;spacingRight=0;verticalAlign=middle;html=1;labelBackgroundColor=#ffffff;rounded=0;align=center;exitX=0.504950495049505;exitY=0;exitDx=0;exitDy=0;exitPerimeter=0;entryX=0.49504950495049505;entryY=0;entryDx=0;entryDy=0;entryPerimeter=0;" edge="1" parent="kyNgz95rOWbvNQYz7ga9-207" source="kyNgz95rOWbvNQYz7ga9-183" target="kyNgz95rOWbvNQYz7ga9-179">
          <mxGeometry relative="1" as="geometry">
            <mxPoint as="offset"/>
            <Array as="points">
              <mxPoint x="1699" y="64.64999999999998"/>
              <mxPoint x="660.25" y="64.64999999999998"/>
            </Array>
          </mxGeometry>
        </mxCell>
        <mxCell id="kyNgz95rOWbvNQYz7ga9-237" style="vsdxID=22;edgeStyle=none;startArrow=none;endArrow=block;startSize=5;endSize=5;strokeColor=#4672c4;spacingTop=0;spacingBottom=0;spacingLeft=0;spacingRight=0;verticalAlign=middle;html=1;labelBackgroundColor=#ffffff;rounded=0;exitX=1.00990099009901;exitY=0.5;exitDx=0;exitDy=0;exitPerimeter=0;entryX=0;entryY=0.5;entryDx=0;entryDy=0;entryPerimeter=0;" edge="1" parent="kyNgz95rOWbvNQYz7ga9-207" source="kyNgz95rOWbvNQYz7ga9-180" target="kyNgz95rOWbvNQYz7ga9-181">
          <mxGeometry relative="1" as="geometry">
            <mxPoint as="offset"/>
            <Array as="points"/>
          </mxGeometry>
        </mxCell>
      </root>
    </mxGraphModel>
  </diagram>
</mxfile>
